# xmcd CD database file
#
# Track frame offsets:
#	150
#	18658
#	34508
#	49694
#	65563
#	84555
#	106134
#	116380
#	137316
#	155670
#	169729
#	182059
#	205551
#
# Disc length: 2944 seconds
#
# Revision: 0
# Processed by: cddbd v1.5.2PL0 Copyright (c) Steve Scherf et al.
# Submitted via: CDex 1.51
#
DISCID=a00b7e0d
DTITLE=Sampler - Lars-Luis Linek -  White Boys Blues CD 1
DYEAR=2002
DGENRE=Blues
TTITLE0=What`s Right
TTITLE1=Want It All
TTITLE2=Sophisticated Lady
TTITLE3=Respect
TTITLE4=Adultery Blues
TTITLE5=Crime And Danger
TTITLE6=Romantic
TTITLE7=Herb`s Blues
TTITLE8=Schlüter Shuffle
TTITLE9=Free
TTITLE10=Te Llamaremos
TTITLE11=Blues A Paris
TTITLE12=Pueblo Blues
EXTD=YEAR: 2002
EXTT0=
EXTT1=
EXTT2=
EXTT3=
EXTT4=
EXTT5=
EXTT6=
EXTT7=
EXTT8=
EXTT9=
EXTT10=
EXTT11=
EXTT12=
PLAYORDER=
